<svg xmlns="http://www.w3.org/2000/svg" viewBox="0 0 512 512"><path d="M28.7 57.1C18.4 59.5 8.1 68.2 3.3 78.5.9 83.7.5 85.7.5 93.5c0 7.6.5 9.9 2.7 14.7C8.6 119.8 19.3 128 31.6 130c8 1.3 440.8 1.3 448.8 0 12.3-2 23-10.2 28.4-21.8 2.2-4.8 2.7-7.1 2.7-14.7 0-7.8-.4-9.8-2.8-15.1-3.6-7.7-11.3-15.4-19.2-19.1l-6-2.8-225.5-.2c-128.9 0-227.1.3-229.3.8m-2.8 163.5C11.4 225 0 240.7 0 256c0 11.4 6.8 24.1 16.3 30.7 10 6.8-8.3 6.3 239.7 6.3s229.7.5 239.7-6.3c9.5-6.6 16.3-19.3 16.3-30.7s-6.8-24.1-16.3-30.7c-10-6.8 8.4-6.3-240.1-6.2-192 0-225.8.2-229.7 1.5M30.6 382c-11.2 1.9-22.2 10.7-27.4 21.8C1 408.6.5 410.9.5 418.5c0 7.8.4 9.8 2.8 15.1 3.6 7.7 11.3 15.4 19.2 19.1l6 2.8h455l6-2.8c7.9-3.7 15.6-11.4 19.2-19.1 2.4-5.3 2.8-7.3 2.8-15.1 0-7.6-.5-9.9-2.7-14.7-5.4-11.6-16.1-19.8-28.4-21.8-7.2-1.2-442.6-1.1-449.8 0"/></svg>